<?xml version="1.0" standalone="no"?>
<!DOCTYPE svg PUBLIC "-//W3C//DTD SVG 1.1//EN" "http://www.w3.org/Graphics/SVG/1.1/DTD/svg11.dtd" >
<!--
2013-9-30: Created.
-->
<svg>
<metadata>
Created by iconfont
</metadata>
<defs>

<font id="iconfont" horiz-adv-x="1024" >
  <font-face
    font-family="iconfont"
    font-weight="500"
    font-stretch="normal"
    units-per-em="1024"
    ascent="896"
    descent="-128"
  />
    <missing-glyph />
    
    <glyph glyph-name="yy" unicode="&#59013;" d="M512.08239747 753.140625c49.93286133 0 98.3001709-9.72290039 143.70117186-28.92150879 43.75305176-18.53942872 83.22143555-45.07141114 117.086792-78.93676757l1.07116699-1.071167 1.15356446-1.07116699 0.65917969-0.57678223c32.79418945-33.86535645 58.58459473-72.75695801 76.71203612-115.85083008 19.03381348-45.23620606 28.59191895-93.10913086 28.59191895-142.3828125 0-38.80920411-6.09741211-77.37121583-18.20983887-114.61486817l-0.08239746-0.16479491-0.08239746-0.16479492c-10.46447754-32.87658692-26.3671875-64.84680176-47.21374512-94.83947754l-9.39331055-13.59558105 0-16.47949219 0-129.19921875-294.15893554 0c-50.01525879 0-98.38256836 9.72290039-143.70117188 28.83911133-43.91784668 18.53942872-83.13903809 45.07141114-116.59240722 78.93676758l-12.85400391 12.93640136c-28.09753418 30.98144531-50.59204102 66.08276367-66.98913575 104.64477539-19.36340333 45.5657959-29.16870117 93.93310547-29.16870116 143.61877442 0 49.60327148 9.80529786 97.88818359 29.16870117 143.28918456 18.70422364 43.83544922 45.48339844 83.38623047 79.5135498 117.4987793l12.85400391 12.85400391c30.73425293 27.76794434 65.67077637 50.01525879 103.90319825 66.16516113C413.86462402 743.41772461 462.23193359 753.140625 512.08239747 753.140625M512.08239747 805.875c-116.59240723 0-222.06115723-47.21374512-298.27880861-123.26660156l0.49438478-0.24719239C137.83312988 605.97875977 90.125 500.67480469 90.125 384.41198731c0-116.51000977 47.70812989-222.06115723 123.67858887-298.2788086l0.49438476 1e-8c75.80566406-76.71203614 181.27441406-123.43139648 297.86682129-123.4313965l313.6871338 1e-8 0.74157714 0c17.96264648 0 32.46459961 14.08996583 32.46459961 32.46459961L859.05810547 144.63537597000004c22.98889161 33.20617676 41.69311523 69.79064942 54.13513184 108.92944337 13.34838867 41.19873047 20.76416016 85.19897461 20.76416016 130.84716796 0 115.43884278-46.80175781 220.0012207-121.61865236 296.46606446l-2.05993652 1.81274413C733.89636231 758.66125489 628.92199708 805.875 512.08239747 805.875L512.08239747 805.875zM722.9375 542.203125L301.0625 542.203125c-14.58435059 0-26.3671875 11.78283692-26.3671875 26.3671875s11.78283692 26.3671875 26.3671875 26.3671875l421.875 0c14.58435059 0 26.3671875-11.78283692 26.3671875-26.3671875S737.52185059 542.203125 722.9375 542.203125zM722.9375 384L301.0625 384c-14.58435059 0-26.3671875 11.78283692-26.3671875 26.3671875s11.78283692 26.3671875 26.3671875 26.3671875l421.875 0c14.58435059 0 26.3671875-11.78283692 26.3671875-26.3671875S737.52185059 384 722.9375 384zM722.9375 225.796875L301.0625 225.796875c-14.58435059 0-26.3671875 11.78283692-26.3671875 26.3671875s11.78283692 26.3671875 26.3671875 26.3671875l421.875 0c14.58435059 0 26.3671875-11.78283692 26.3671875-26.3671875S737.52185059 225.796875 722.9375 225.796875z"  horiz-adv-x="1025" />

    
    <glyph glyph-name="app" unicode="&#58962;" d="M502.647516 480.507916l0-85.939251 24.592418 0c33.344949 0 50.001413 14.500589 50.001413 43.484813 0 28.312691-16.485048 42.453497-49.486226 42.453497l-25.107605 0zM833.388274 591.992729l0 240.005651c0 35.359548-28.656463 64.001884-64.001884 64.001884l-512.019779 0c-35.343537 0-64.001884-28.641394-64.001884-64.001884l0-240.005651-119.386861 0 0-400.008477 119.386861 0 0-256.005651c0-35.344478 28.657405-64.001884 64.001884-64.001884l512.019779 0c35.344478 0 64.001884 28.656463 64.001884 64.001884l0 256.005651 118.225571 0 0 400.008477-118.225571 0zM769.388274 815.99838l0-224.005651-512.012244 0-0.006593 224.005651 512.020721 0zM636.899458 440.287525c0-27.265364-10.000471-49.126442-30.000471-65.564398-20.000942-16.453968-45.002119-24.330586-75.031787-23.6421l-29.218743 0 0-92.813751-56.720509 0 0 266.241582 91.626089 0c66.218978 0 99.343537-28.079115 99.343537-84.221333zM226.280198 319.28352199999995l-19.593125-61.01813-61.540852 0 97.455145 266.24064 66.696492 0 95.564869-266.24064-61.876148 0-19.936897 61.01813-96.767601 0zM513.382623-96.02233999999999c-17.671768 0-32.016953 14.329174-32.016953 32.000942s14.345185 32.000942 32.016953 32.000942 32.000942-14.329174 32.000942-32.000942-14.329174-32.000942-32.000942-32.000942zM769.388274-0.020456999999964864l-512.020721 0 0.006593 192.003767 512.011302 0 0-192.003767zM830.857547 374.723127c-19.984931-16.453968-45.002119-24.330586-75.01766-23.6421l-29.218743 0 0-92.813751-56.719567 0 0 266.241582 91.595008 0c66.251943 0 99.348246-28.078173 99.348246-84.221333-0.000942-27.265364-9.986343-49.126442-29.988227-65.564398zM751.714622 480.507916l-25.09442 0 0-85.939251 24.562279 0c33.344949 0 50.033435 14.500589 50.033435 43.484813 0.000942 28.312691-16.50106 42.454438-49.501295 42.454438zM275.267247 478.615757l-1.562515 0c-0.687544-7.780551-2.218036-15.297386-4.625383-22.5166l-30.429951-92.98705 70.995055 0-30.250059 92.298564c-1.954321 5.845067-3.328467 13.58041-4.126207 23.204144z"  horiz-adv-x="1024" />

    
    <glyph glyph-name="xt" unicode="&#58918;" d="M768-128L256-128C204.567273-128 162.909091-86.34181799999999 162.909091-34.90909099999999L162.909091 104.72727299999997 162.909091 151.27272700000003 162.909091 197.81818199999998 162.909091 802.909091C162.909091 854.341818 204.567273 896 256 896L768 896C819.432727 896 861.090909 854.341818 861.090909 802.909091L861.090909 197.81818199999998 861.090909 151.27272700000003 861.090909 104.72727299999997 861.090909-34.90909099999999C861.090909-86.34181799999999 819.432727-128 768-128ZM814.545455 802.909091C814.545455 828.602182 793.693091 849.454545 768 849.454545L256 849.454545C230.306909 849.454545 209.454545 828.602182 209.454545 802.909091L209.454545 197.81818199999998 814.545455 197.81818199999998 814.545455 802.909091ZM814.545455 151.27272700000003L209.454545 151.27272700000003 209.454545-34.90909099999999C209.454545-60.60218199999997 230.306909-81.45454500000005 256-81.45454500000005L768-81.45454500000005C793.693091-81.45454500000005 814.545455-60.60218199999997 814.545455-34.90909099999999L814.545455 151.27272700000003ZM512-34.90909099999999C473.460364-34.90909099999999 442.181818-3.6305449999999837 442.181818 34.90909099999999 442.181818 73.44872699999996 473.460364 104.72727299999997 512 104.72727299999997 550.539636 104.72727299999997 581.818182 73.44872699999996 581.818182 34.90909099999999 581.818182-3.6305449999999837 550.539636-34.90909099999999 512-34.90909099999999Z"  horiz-adv-x="1024" />

    
    <glyph glyph-name="yx" unicode="&#58960;" d="M146.366233 877.923756l731.186479 0 0-987.835493-731.186479 0 0 987.835493ZM836.688862-128H187.230083a58.964131 58.964131 0 0 0-58.892019 58.892019v906.215962a58.964131 58.964131 0 0 0 58.892019 58.892019h649.458779a58.964131 58.964131 0 0 0 58.892019-58.892019v-906.215962a58.964131 58.964131 0 0 0-58.892019-58.892019zM187.230083 859.943662a22.835681 22.835681 0 0 1-22.835681-22.835681v-906.215962a22.835681 22.835681 0 0 1 22.835681-22.835681h649.458779a22.835681 22.835681 0 0 1 22.835681 22.835681v906.215962a22.835681 22.835681 0 0 1-22.835681 22.835681H187.230083zM243.429895 781.400939l537.071174 0 0-399.960939-537.071174 0 0 399.960939ZM739.6252 363.411831H284.281726a58.964131 58.964131 0 0 0-58.892019 58.892019V740.537089a58.964131 58.964131 0 0 0 58.892019 58.892019h455.343474a58.964131 58.964131 0 0 0 58.892019-58.892019v-318.233239a58.964131 58.964131 0 0 0-58.892019-58.892019zM284.281726 763.37277a22.835681 22.835681 0 0 1-22.835681-22.835681v-318.233239a22.835681 22.835681 0 0 1 22.835681-22.835681h455.343474a22.835681 22.835681 0 0 1 22.835681 22.835681V740.537089a22.835681 22.835681 0 0 1-22.835681 22.835681H284.281726zM368.942008 201.91549299999997h-16.826292v16.826291a40.984038 40.984038 0 0 1-40.863849 40.86385 40.984038 40.984038 0 0 1-40.86385-40.86385v-16.826291h-16.826291a40.984038 40.984038 0 0 1-40.86385-40.86385 40.984038 40.984038 0 0 1 40.86385-40.86385h16.826291v-16.826291a40.984038 40.984038 0 0 1 40.86385-40.863849 40.984038 40.984038 0 0 1 40.863849 40.863849v16.826291h16.826292a40.984038 40.984038 0 0 1 40.863849 40.86385 40.984038 40.984038 0 0 1-40.863849 40.86385zM311.251867 44.469483999999966a58.964131 58.964131 0 0 0-58.892019 57.69014 58.892019 58.892019 0 0 0 0 117.784038 58.892019 58.892019 0 0 0 117.784037 0 58.892019 58.892019 0 0 0 0-117.784038 58.964131 58.964131 0 0 0-58.892018-57.69014z m-57.690141 139.41784a22.835681 22.835681 0 1 1 0-45.671362h16.826291a18.028169 18.028169 0 0 0 18.028169-18.028169v-16.826291a22.835681 22.835681 0 0 1 45.671361 0v16.826291a18.028169 18.028169 0 0 0 18.028169 18.028169h16.826292a22.835681 22.835681 0 0 1 0 45.671362h-16.826292a18.028169 18.028169 0 0 0-18.028169 18.028169v16.826291a22.835681 22.835681 0 0 1-45.671361 0v-16.826291a18.028169 18.028169 0 0 0-18.028169-18.028169h-16.826291zM773.011018 291.04704000000004l34.644131-60.005396-144.731141-83.560563-34.644131 60.005396 144.731141 83.560563ZM675.769425 142.14610300000004a53.159061 53.159061 0 0 0-13.773521 1.826855 52.630235 52.630235 0 0 0-12.715868 96.450704l84.720375 48.916432a52.67831 52.67831 0 0 0 52.67831-91.234554l-84.720375-48.916432a52.221596 52.221596 0 0 0-26.188921-7.043005z m84.467982 118.180658a16.381596 16.381596 0 0 1-8.208827-2.199437l-84.720375-48.916432a16.633991 16.633991 0 0 1-6.081503-22.703474 16.718122 16.718122 0 0 1 22.703475-6.081503l84.720375 48.916432a16.573897 16.573897 0 0 1-4.014272 30.407512 16.970516 16.970516 0 0 1-4.410892 0.564883zM773.023068 151.275086l34.644132-60.005396-144.731142-83.560564-34.644131 60.005396 144.731141 83.560564ZM675.769425 2.3677000000000135a53.159061 53.159061 0 0 0-13.78554 1.838873 52.630235 52.630235 0 0 0-12.715868 96.450704l84.720376 48.916432a52.696338 52.696338 0 0 0 52.678309-91.282629l-84.720375-48.916432a52.221596 52.221596 0 0 0-26.176902-7.006948z m84.467982 118.180657a16.381596 16.381596 0 0 1-8.220845-2.16338l-84.720376-48.916432a16.633991 16.633991 0 0 1-6.081502-22.703475 16.718122 16.718122 0 0 1 22.703474-6.081502l84.720375 48.856338a16.573897 16.573897 0 0 1-4.014272 30.407512 16.970516 16.970516 0 0 1-4.398873 0.600939z"  horiz-adv-x="1024" />

    
    <glyph glyph-name="dx" unicode="&#58961;" d="M1143.72323721 542.81201016a60.50913838 60.50913838 0 0 1-49.54308047 26.04438632h-127.28459531V665.2010440399999a69.90861622 69.90861622 0 0 1-70.10443828 69.90861622H582.10443828a28.78590059 28.78590059 0 0 0-28.78590059 28.78590146A69.90861622 69.90861622 0 0 1 483.40992148 834H263.10966084A70.10443828 70.10443828 0 0 1 193.20104463 763.8955617199999a28.78590059 28.78590059 0 0 0-28.78590146-28.78590146H132.10443828A70.10443828 70.10443828 0 0 1 62 665.2010440399999v-489.55613555A47.7806792 47.7806792 0 0 1 99.59791133 129.03916434999996L73.16187998 60.50130526999999a95.95300253 95.95300253 0 0 1 3.5248043-78.32898193 85.96605762 85.96605762 0 0 1 53.8511748-45.03916406 105.1566583 105.1566583 0 0 1 24.6736292-3.13315928H884.4543081A87.92428183 87.92428183 0 0 1 965.72062637-8.036553809999987l185.05221943 495.43080996a60.31331631 60.31331631 0 0 1-7.04960859 55.41775401zM103.51436065 173.09921630999997a4.89556143 4.89556143 0 0 0 0 1.76240215 2.54569219 2.54569219 0 0 0 0 1.17493506v489.55613554a28.78590059 28.78590059 0 0 0 28.59007763 28.39425644h32.31070489A70.10443828 70.10443828 0 0 1 234.32375938 763.8955617199999a28.78590059 28.78590059 0 0 0 28.78590146 28.98172266h220.30026064A28.78590059 28.78590059 0 0 0 512.39164502 763.8955617199999a70.30026123 70.30026123 0 0 1 69.90861621-69.90861621h314.49086192a28.59007852 28.59007852 0 0 0 28.78590058-28.78590147v-96.34464756h-587.46736318a103.59007823 103.59007823 0 0 1-97.91122677-67.75456904L133.86684042 217.15926914l-16.64490849-43.66840781a6.65796357 6.65796357 0 0 0-6.46214062-4.69973848h-1.56658008a7.24543067 7.24543067 0 0 0-5.67885058 4.30809346zM1112.19582237 501.10182744l-185.05221944-495.43080908A46.60574414 46.60574414 0 0 0 884.4543081-23.898172270000032H155.21148828a54.83028691 54.83028691 0 0 0-13.70757216 1.76240215 44.2558749 44.2558749 0 0 0-28.00261055 23.6945171 55.22193193 55.22193193 0 0 0-2.15404717 43.86422987l39.16449053 101.04438604 4.69973935 12.14099209 2.93733721 7.63707569 120.03916376 320.75718047a62.66318555 62.66318555 0 0 0 58.74673624 40.53524765h757.24543125a19.5822457 19.5822457 0 0 0 15.86161846-8.22454277 19.5822457 19.5822457 0 0 0 2.15404717-18.21148858zM116.24281982 171.53263711a6.07049648 6.07049648 0 0 1 0 1.95822422l16.6449085 43.66840781z"  horiz-adv-x="1244" />

    
    <glyph glyph-name="bb" unicode="&#58935;" d="M672 561.44L512 192 333.28 604.8a32 32 0 0 1-50.88 10.88 32.96 32.96 0 0 1-7.2-37.76l178.08-410.88a64 64 0 0 1 117.44 0L740.8 560a88 88 0 0 0 144-30.72A400 400 0 1 0 455.36 780.16a406.88 406.88 0 0 0 180.16-16 32.8 32.8 0 0 1 37.28 10.24 32 32 0 0 1-16 49.92A464 464 0 1 1 974.88 352a461.12 461.12 0 0 1-39.68 222.24 139.04 139.04 0 0 1-205.76 56.96A165.28 165.28 0 0 1 672 561.44z"  horiz-adv-x="1024" />

    
    <glyph glyph-name="close" unicode="&#58928;" d="M574.55 373.65L904.4 703.5c16.65 16.65 16.65 44.1 0 60.75l-1.8 1.8c-16.65 16.65-44.1 16.65-60.75 0L512 435.75l-329.85 330.3c-16.65 16.65-44.1 16.65-60.75 0l-1.8-1.8c-17.1-16.65-17.1-44.1 0-60.75l329.85-329.85L119.6 43.799999999999955c-16.65-16.65-16.65-44.1 0-60.75l1.8-1.8c16.65-16.65 44.1-16.65 60.75 0L512 311.1l329.85-329.85c16.65-16.65 44.1-16.65 60.75 0l1.8 1.8c16.65 16.65 16.65 44.1 0 60.75L574.55 373.65z"  horiz-adv-x="1024" />

    
    <glyph glyph-name="yin" unicode="&#58973;" d="M832 385.792H704c0 106.048 85.952 192 192 192 35.328 0 64 28.608 64 64 0 35.328-28.672 64-64 64-176.704 0-320-143.296-320-320v-256c0-70.72 57.344-128 128-128h128c70.656 0 128 57.28 128 128v128c0 70.72-57.344 128-128 128z m-448 192c35.328 0 64 28.608 64 64 0 35.328-28.672 64-64 64-176.704 0-320-143.296-320-320v-256c0-70.72 57.28-128 128-128h128c70.72 0 128 57.28 128 128v128c0 70.72-57.28 128-128 128H192c0 106.048 85.952 192 192 192z"  horiz-adv-x="1024" />

    
    <glyph glyph-name="collect" unicode="&#60150;" d="M818.5856-37.73440000000005c-7.2704 0-14.5408 1.3824-21.4528 4.2496l-294.2976 121.088c-1.2288 0.512-2.6624 0.512-3.9424 0l-290.0992-120.7808c-17.408-7.2704-37.1712-5.3248-52.8896 5.12a56.1664 56.1664 0 0 0-25.088 46.848V726.3744c0 31.0784 25.2416 56.32 56.32 56.32h631.3984c31.0784 0 56.32-25.2416 56.32-56.32v-707.7888c0-18.8416-9.3184-36.3008-24.9856-46.7968a56.0384 56.0384 0 0 0-31.2832-9.5232z m-317.696 176.9472c7.2704 0 14.5408-1.4336 21.4528-4.2496l294.2976-121.088c2.0992-0.8704 3.7376-0.2048 4.8128 0.4608 1.024 0.7168 2.2528 1.9968 2.2528 4.2496V726.3744c0 2.816-2.304 5.12-5.12 5.12H187.1872c-2.816 0-5.12-2.304-5.12-5.12v-707.5328c0-2.2528 1.2288-3.584 2.304-4.2496 1.024-0.7168 2.7136-1.3312 4.8128-0.4608l290.0992 120.7808c6.9632 2.8672 14.2848 4.3008 21.6064 4.3008zM585.8304 256.8704c-7.3216 0-14.6944 1.7408-21.504 5.3248l-63.5392 33.4336-63.5392-33.4336c-15.6672-8.192-34.2528-6.8608-48.5376 3.5328a45.83424 45.83424 0 0 0-18.3296 45.056l12.1344 70.7584-51.3536 50.0736c-12.6464 12.3392-17.1008 30.4128-11.6736 47.2576a45.89056 45.89056 0 0 0 37.2224 31.3856l71.0656 10.3424 31.7952 64.3584c7.8336 15.8208 23.6544 25.7024 41.3184 25.7024s33.4848-9.8304 41.3184-25.7024l31.7952-64.3584 71.0656-10.3424c17.5104-2.56 31.744-14.5408 37.2224-31.3856 5.4784-16.7936 0.9728-34.9184-11.6736-47.2576l-51.4048-50.1248 12.1344-70.7584c2.9696-17.408-4.0448-34.6624-18.3296-45.056a46.76096 46.76096 0 0 0-27.1872-8.8064zM374.3232 461.056l45.8752-44.7488a46.11072 46.11072 0 0 0 13.2608-40.8064L422.656 312.32000000000005l56.7296 29.8496a46.07488 46.07488 0 0 0 42.9056 0l56.7296-29.8496-10.8544 63.1808c-2.56 14.9504 2.4064 30.208 13.2608 40.8064l45.8752 44.7488-63.4368 9.216a46.30528 46.30528 0 0 0-34.7136 25.1904L500.8384 552.96l-28.3648-57.4976a45.89056 45.89056 0 0 0-34.7136-25.1904l-63.4368-9.216z m263.2704-1.4848zM496.2304 562.2783999999999z"  horiz-adv-x="1024" />

    
    <glyph glyph-name="top" unicode="&#58931;" d="M752.736 464.937C757.159 755.425 520.41 887.03 504.518 895.59V896l-0.45-0.205-0.41 0.205v-0.41c-15.934-8.56-252.723-140.165-248.259-430.653-48.21-31.457-98.713-87.368-90.685-184.074 8.028-96.666 101.007-160.768 136.601-157.287 35.595 3.482 25.232 30.31 25.232 30.31l12.206 50.095s52.47-80.569 69.304-80.528c15.114 1.23 87 0.123 95.6 0h0.82c8.602 0.123 80.486 1.23 95.6 0 16.794 0 69.305 80.528 69.305 80.528l12.165-50.094s-10.322-26.83 25.272-30.31c35.595-3.482 128.574 60.62 136.602 157.286 8.028 96.665-42.475 152.617-90.685 184.074z m-248.669 4.26c-6.758 0.123-94.781 3.359-102.891 107.192 2.95 98.714 95.97 107.438 102.891 107.93 6.964-0.492 99.943-9.216 102.892-107.93-8.11-103.833-96.174-107.07-102.892-107.192z m-52.019-500.531c0-11.838-9.42-21.382-21.012-21.382a21.217 21.217 0 0 0-21.054 21.34V74.25999999999999c0 11.797 9.421 21.382 21.054 21.382 11.591 0 21.012-9.585 21.012-21.382v-105.635z m77.333-57.222a21.504 21.504 0 0 0-21.34-21.626 21.504 21.504 0 0 0-21.34 21.626V68.52599999999995c0 11.96 9.543 21.668 21.299 21.668 11.796 0 21.38-9.708 21.38-21.668v-157.082z m71.147 82.043c0-11.796-9.42-21.34-21.053-21.34a21.217 21.217 0 0 0-21.013 21.34v75.367c0 11.755 9.421 21.299 21.013 21.299 11.632 0 21.053-9.544 21.053-21.3v-75.366z"  horiz-adv-x="1024" />

    
    <glyph glyph-name="search" unicode="&#58926;" d="M1107.30913719-13.459593749999954l-186.86323313 145.37686875a479.97811781 479.97811781 0 1 1-69.42107062-87.6783975q13.80107531 13.80107531 26.30518125 28.51668l185.08405875-143.96350594a36.58116281 36.58116281 0 1 1 44.89506375 57.73172719z m-594.79308657-9.37807969c-223.66055812 0-405.63521719 181.95803156-405.63521718 405.63521719S288.80560906 788.43276094 512.46616719 788.43276094 918.10138437 606.4082184399999 918.10138437 382.79754375000005 736.14335281-22.837673440000003 512.46616719-22.837673440000003z"  horiz-adv-x="1165" />

    
    <glyph glyph-name="link" unicode="&#58913;" d="M732.43091059 284.01744031H508.08933926c-52.92427539 0-96.07189894 43.14762354-96.07189895 96.07189895v35.97807884c0 6.77847862 5.60528039 12.38375903 12.38375903 12.38375902s12.38375903-5.60528039 12.38375903-12.38375902V380.08933926c0-39.36731815 31.93706274-71.3043809 71.30438089-71.3043809h224.34157133c39.36731815 0 71.3043809 31.93706274 71.3043809 71.3043809V604.4309105899999c0 39.36731815-31.93706274 71.3043809-71.30438091 71.30438088H508.08933926c-39.36731815 0-71.3043809-31.93706274-71.3043809-71.30438089v-83.6881399c0-6.77847862-5.60528039-12.38375903-12.38375902-12.38375904s-12.38375903 5.60528039-12.38375902 12.38375904V604.4309105899999c0 52.92427539 43.14762354 96.07189894 96.07189894 96.07189894h224.34157133c52.92427539 0 96.07189894-43.14762354 96.07189894-96.07189894V380.08933926c0-52.92427539-43.01726818-96.07189894-96.07189895-96.07189895zM515.91066074 67.49719046999996H291.56908941c-52.92427539 0-96.07189894 43.14762354-96.07189894 96.07189894V387.91066074c0 52.92427539 43.14762354 96.07189894 96.07189894 96.07189895H515.91066074c52.92427539 0 96.07189894-43.14762354 96.07189895-96.07189895v-32.06741809c0-6.77847862-5.60528039-12.38375903-12.38375903-12.38375903s-12.38375903 5.60528039-12.38375903 12.38375903V387.91066074c0 39.36731815-31.93706274 71.3043809-71.30438089 71.3043809H291.56908941c-39.36731815 0-71.3043809-31.93706274-71.30438088-71.3043809v-224.34157133c0-39.36731815 31.93706274-71.3043809 71.30438089-71.3043809H515.91066074c39.36731815 0 71.3043809 31.93706274 71.3043809 71.30438091V243.21621322c0 6.77847862 5.60528039 12.38375903 12.38375902 12.38375903s12.38375903-5.60528039 12.38375902-12.38375902v-79.64712382c0-53.05463077-43.14762354-96.07189894-96.07189894-96.07189894z"  horiz-adv-x="1024" />

    
    <glyph glyph-name="yh" unicode="&#58894;" d="M283.21250029 82.12499971A377.1 377.1 0 0 1 512 5.250000290000003c85.95 0 165.22499971 28.64999971 228.78749971 76.87499942a228.75000029 228.75000029 0 1 1-457.61249971 0z m-61.95000058 59.10000029a296.73749971 296.73749971 0 0 0 172.61250029 214.49999971 183.75000029 183.75000029 0 1 0 236.25 0 296.73749971 296.73749971 0 0 0 172.61250029-214.49999971A377.25000029 377.25000029 0 0 1 890.74999971 384c0 209.17500029-169.57500029 378.74999971-378.74999971 378.74999971C302.82499971 762.74999971 133.25000029 593.1750002900001 133.25000029 384c0-92.3625 33.075-177.00000029 88.01249942-242.775zM512-62.24999971C265.55000029-62.24999971 65.75000029 137.55000028999996 65.75000029 384S265.55000029 830.24999971 512 830.24999971 958.24999971 630.4499997099999 958.24999971 384 758.44999971-62.24999971 512-62.24999971z m0 442.49999942a116.25000029 116.25000029 0 1 1 0 232.50000058 116.25000029 116.25000029 0 0 1 0-232.50000058z"  horiz-adv-x="1024" />

    
    <glyph glyph-name="ci" unicode="&#58880;" d="M987.52 528.64C879.36 675.2 720.64 768 543.36 768S208 675.2 99.2 528.64c-48-64.64-48-160.64 0-225.28C208 156.79999999999995 366.72 64 543.36 64c177.28 0 335.36 92.8 444.16 239.36 48 64.64 48 160.64 0 225.28z m-48-172.16C839.04 211.20000000000005 694.4 128 542.72 128s-296.32 83.2-396.8 228.48c-24.32 33.92-24.32 84.48 0 119.04C246.4 620.8 391.04 704 542.72 704s296.32-83.2 396.8-228.48c23.68-34.56 23.68-85.12 0-119.04zM544 640c-123.52 0-224-100.48-224-224s100.48-224 224-224 224 100.48 224 224-100.48 224-224 224z m0-384c-88.32 0-160 71.68-160 160s71.68 160 160 160 160-71.68 160-160-71.68-160-160-160z"  horiz-adv-x="1024" />

    
    <glyph glyph-name="sj" unicode="&#58908;" d="M841.3719177 723.30000001c-90.6 90.6-211.2 140.4-339.6 140.39999998s-249-49.8-339.60000001-140.4c-187.20000001-187.20000001-187.20000001-491.4 0-678.6 90.6-90.6 211.2-140.4 339.60000001-140.4s249 49.8 339.6 140.4c90.6 90.6 140.4 210.6 140.4 339s-49.8 249-140.4 339.6z m-67.8-611.4c-72.6-72.00000001-169.2-112.2-271.8-112.2-102.6 0-199.2 40.2-271.8 112.2-150 150-150 393.6 0 542.99999997 72.6 72.6 169.2 112.2 271.8 112.20000003 102.6 0 199.2-40.2 271.8-112.19999999 72.6-72.6 112.2-169.2 112.2-271.80000001 0-102.6-40.2-198.6-112.2-271.2z m-224.4 292.2c0.6 20.99999999 0.6 49.8 0.6 91.2 0 115.2 0 126.6-0.6 130.2-1.2 26.4-23.4 47.4-49.80000001 46.20000001-26.4-1.2-46.8-23.4-46.19999999-49.8 0.6-19.8 0-220.8 0-237.60000001v-19.79999999l110.4-110.40000001c9.6-9.6 21.6-13.8 34.20000001-13.8s24.6 4.80000001 34.19999999 13.8c18.6 18.6 18.6 49.2 0 67.8l-82.8 82.2z"  horiz-adv-x="1024" />

    
    <glyph glyph-name="fl" unicode="&#58968;" d="M389.28244766 752.12620019q22.40497881 0 38.3337334-15.51537861t15.92875459-37.89279931l0-215.31377373q0-22.40497881-15.92875459-38.33373341t-38.3337334-15.92875458l-215.31377373 0q-22.40497881 0-37.89279932 15.92875458t-15.51537862 38.33373341l0 215.31377373q0 22.40497881 15.51537862 37.89279931t37.89279932 15.51537861l215.31377373 0zM389.28244766 321.52621084q22.40497881 0 38.3337334-15.51537861t15.92875459-37.89279932l0-216.16808379q0-22.40497881-15.92875459-37.89279931t-38.3337334-15.51537862l-215.31377373 0q-22.40497881 0-37.89279932 15.51537862t-15.51537862 37.89279931l0 216.16808379q0 22.40497881 15.51537862 37.89279931t37.89279932 15.51537862l215.31377373 0zM820.73674707 321.52621084q22.40497881 0 37.89279931-15.51537861t15.51537862-37.89279932l0-216.16808379q0-22.40497881-15.51537862-37.89279931t-37.8927993-15.51537862l-215.31377374 0q-22.40497881 0-38.3337334 15.51537862t-15.92875458 37.89279931l0 216.16808379q0 22.40497881 15.92875458 37.89279931t38.3337334 15.51537862l215.31377373 0zM940.45043428 657.40798183q17.22399961-17.22399961 17.2239996-40.48328847t-17.22399961-39.62897842l-160.19697479-160.19697481q-17.22399961-17.22399961-40.0423544-17.2239996t-40.0423544 17.2239996l-160.1969748 160.19697481q-16.36968955 16.36968955-16.36968955 39.62897842t16.36968955 40.48328847l160.1969748 160.19697481q17.22399961 16.36968955 40.0423544 16.36968955t40.0423544-16.36968955z"  horiz-adv-x="1024" />

    
    <glyph glyph-name="xz" unicode="&#59478;" d="M418.13333335 168.48979594000002c-10.77551063 0-19.59183657 8.81632688-19.59183657 19.59183656V579.9183674999999c0 10.77551063 8.81632688 19.59183657 19.59183657 19.59183656s19.59183657-8.81632688 19.59183656-19.59183656v-391.836735c0-10.77551063-8.81632688-19.59183657-19.59183656-19.59183656zM418.13333335 168.48979594000002c-4.89795938 0-9.79591875 1.95918375-13.71428531 5.87755125-7.836735 7.836735-7.836735 20.0816325 0 27.9183675l158.69387718 158.69387718c7.836735 7.836735 20.0816325 7.836735 27.91836751 1e-8 7.836735-7.836735 7.836735-20.0816325 0-27.9183675l-158.69387813-158.69387719c-4.40816345-3.9183675-9.30612281-5.87755125-14.20408125-5.87755125zM418.13333335 168.48979594000002c-4.89795938 0-9.79591875 1.95918375-13.71428531 5.87755125l-158.69387813 158.69387718c-7.836735 7.836735-7.836735 20.0816325-1e-8 27.91836751 7.836735 7.836735 20.0816325 7.836735 27.91836751 0l158.69387719-158.69387719c7.836735-7.836735 7.836735-20.0816325 0-27.9183675-4.40816345-3.9183675-9.30612281-5.87755125-14.20408125-5.87755125zM418.13333335-7.836734999999976c-216 0-391.836735 175.836735-391.836735 391.836735s175.836735 391.836735 391.836735 391.836735 391.836735-175.836735 391.836735-391.836735-175.836735-391.836735-391.836735-391.836735z m0 744.48979594c-194.44897969 0-352.65306094-158.20408125-352.65306094-352.65306094s158.20408125-352.65306094 352.65306094-352.65306094 352.65306094 158.20408125 352.65306094 352.65306094-158.20408125 352.65306094-352.65306094 352.65306094z"  horiz-adv-x="1024" />

    
    <glyph glyph-name="wz" unicode="&#59127;" d="M797.3704514 583.0528125000001c36.8990625-63.253125 55.3565625-132.3271875 55.3565625-207.219375 0-74.90718749-18.45468751-143.97937499-55.3565625-207.2184375-36.91406251-63.253125-86.98781249-113.3353125-150.2259375-150.23999999-63.2465625-36.8990625-132.313125-55.36124999-207.19875-55.36125002-74.8921875 0-143.95781249 18.4621875-207.1959375 55.36125002-63.2465625 36.90843749-113.32125001 86.98781249-150.22218751 150.23999999-36.91406251 63.2390625-55.36124999 132.313125-55.36125001 207.2184375 0 74.893125 18.4471875 143.9653125 55.36125001 207.219375 36.9009375 63.2390625 86.9746875 113.325 150.22218751 150.2353125 63.2390625 36.90843749 132.30562498 55.3659375 207.1959375 55.3659375 74.8846875 0 143.953125-18.4621875 207.19875-55.3659375 63.2390625-36.909375 113.311875-86.98874999 150.2259375-150.2353125v0zM619.0682639 684.8925c-54.680625 31.9265625-114.39375002 47.900625-179.124375 47.90062499-64.73624999 0-124.44843748-15.9721875-179.11874999-47.90062499-54.680625-31.9359375-97.989375-75.24375001-129.90843751-129.9253125-31.9359375-54.68625001-47.900625-114.39937501-47.900625-179.1365625 0-64.74562499 15.96374999-124.4578125 47.900625-179.1365625 31.9190625-54.688125 75.2278125-97.996875 129.90843751-129.924375 54.6721875-31.9359375 114.384375-47.900625 179.11874999-47.900625 64.73156251 0 124.44375001 15.96374999 179.124375 47.900625 54.6721875 31.9265625 97.97906249 75.23625001 129.90843751 129.924375 31.9265625 54.680625 47.900625 114.39375002 47.90062499 179.1365625 0 64.73812501-15.9721875 124.45124999-47.90062499 179.1365625-31.9303125 54.6815625-75.23625001 97.989375-129.90843751 129.9253125v0zM537.23013891 473.12624998c26.86875001-26.87624999 40.306875-59.31374999 40.30687501-97.29281248 0-37.9903125-13.43718749-70.4146875-40.30687501-97.2909375-26.87624999-26.87624999-59.3071875-40.31624998-97.28531251-40.31625003-37.9828125 0-70.40999999 13.4390625-97.284375 40.31625003-26.8734375 26.87624999-40.30875001 59.2996875-40.30875 97.2909375 0 37.978125 13.43718749 70.41562499 40.30875 97.29281251 26.87624999 26.87624999 59.2996875 40.3153125 97.284375 40.31531248 37.978125 0 70.40999999-13.43718749 97.28531251-40.31531248v0zM537.23013891 473.12624998z"  horiz-adv-x="1024" />

    
    <glyph glyph-name="zuo" unicode="&#59431;" d="M276.755-46.936000000000035c28.497-29.315 74.739-29.315 103.307 0l367.236 378.01100001c28.483 29.367 28.483 76.982-1e-8 106.29099999l-367.23599999 377.997c-28.562 29.367-74.806 29.367-103.307 0-28.546-29.325-28.54600001-76.929 0-106.30399999l315.6-324.84100001-315.599-324.803c-28.545-29.367-28.544-76.973 0-106.356l0 0z"  horiz-adv-x="1024" />

    
    <glyph glyph-name="shang" unicode="&#60151;" d="M942.936 148.755c29.315 28.497 29.315 74.739 0 103.307l-378.01100001 367.236c-29.367 28.483-76.982 28.483-106.29099999-1e-8l-377.997-367.23599999c-29.367-28.562-29.367-74.806 0-103.307 29.325-28.546 76.929-28.54600001 106.30399999 0l324.84100001 315.6 324.803-315.599c29.367-28.545 76.973-28.544 106.356 0l0 0z"  horiz-adv-x="1024" />

    
    <glyph glyph-name="xia" unicode="&#60152;" d="M81.064 619.245c-29.315-28.497-29.315-74.739 0-103.307l378.01100001-367.236c29.367-28.483 76.982-28.483 106.29099999 1e-8l377.997 367.23599999c29.367 28.562 29.367 74.806 0 103.307-29.325 28.546-76.929 28.54600001-106.30399999 0l-324.84100001-315.6-324.803 315.599c-29.367 28.545-76.973 28.544-106.356 0l0 0z"  horiz-adv-x="1024" />

    
    <glyph glyph-name="dq" unicode="&#59421;" d="M365.78750029 68.35208334000004c11.09999971-11.025 29.11875029-11.025 40.21875 0L658.43749971 319.90208334c5.92499971 5.88750029 8.4375 13.68749971 8.0624997 21.43125 0.39375 7.70625-2.11875029 15.525-8.0624997 21.43125L406.00625029 614.2958336300001c-11.09999971 11.04374971-29.11875029 11.04374971-40.21875 0s-11.09999971-28.98749971 0-40.03125029L599.58125 341.33333333999997 365.78750029 108.38333363000004C354.68749971 97.32083334000004 354.68749971 79.41458363000004 365.78750029 68.35208334000004z"  horiz-adv-x="1024" />

    
    <glyph glyph-name="you" unicode="&#58980;" d="M747.245 814.936c-28.497 29.315-74.739 29.315-103.307 0l-367.236-378.011c-28.483-29.367-28.483-76.982 0-106.291l367.236-377.997c28.562-29.367 74.806-29.367 103.307 0 28.546 29.325 28.546 76.929 0 106.304l-315.6 324.841 315.599 324.803c28.545 29.367 28.544 76.973 0 106.356l0 0z"  horiz-adv-x="1024" />

    
    <glyph glyph-name="menu" unicode="&#59430;" d="M716.8 631.04L513.92 432 311.68 631.04c-12.8 12.8-33.28 12.8-45.44 0-12.8-12.8-12.8-32.64 0-45.44l224-220.16c6.4-6.4 15.36-9.6 24.32-8.96C522.88 355.84000000000003 531.2 359.03999999999996 538.24 365.44000000000005l224 220.16c12.8 12.8 12.8 32.64 0 45.44C749.44 643.2 728.96 643.2 716.8 631.04zM832 832L192 832C121.6 832 64 774.4 64 704l0-640c0-70.4 57.6-128 128-128l640 0c70.4 0 128 57.6 128 128L960 704C960 774.4 902.4 832 832 832zM896 64c0-35.2-28.8-64-64-64L192 0c-35.2 0-64 28.8-64 64L128 704c0 35.2 28.8 64 64 64l640 0c35.2 0 64-28.8 64-64L896 64zM716.8 375.03999999999996l-202.24-199.04L311.68 375.03999999999996c-12.8 12.8-33.28 12.8-45.44 0-12.8-12.8-12.8-32.64 0-45.44l224-220.16c6.4-6.4 15.36-9.6 24.32-8.96 8.96-0.64 17.28 2.56 24.32 8.96l224 220.16c12.8 12.8 12.8 32.64 0 45.44C749.44 387.2 728.96 387.2 716.8 375.03999999999996z"  horiz-adv-x="1024" />

    


  </font>
</defs>
</svg>
